# xmcd
#
# Track frame offsets:
#	150
#	18466
#	36838
#	48067
#	64325
#	80706
#	95885
#	112832
#	129187
#	147338
#	165419
#	190716
#	204445
#	225140
#	244153
#	267067
#	280130
#	295835
#	306748
#	328333
#
# Disc length: 4601 seconds
#
# Revision: 2
# Processed by: cddbd v1.5.2PL0 Copyright (c) Steve Scherf et al.
# Submitted via: audiograbber 1.83.01
#
DISCID=1c11f714
DTITLE=Various Artist - 100 Hits - Funk and Soul [Box-Set] [CD 1)
DYEAR=2013
DGENRE=Funk
TTITLE0=Alexander O'Neal - Criticize
TTITLE1=Freddie Jackson - Rock Me Tonight (For Old Time's Sake) (Edit)
TTITLE2=Ann Peebles - I Can't Stand The Rain
TTITLE3=A Taste Of Honey - Boogie Oogie Oogie (7" Single Edit)
TTITLE4=Natalie Cole - Party Lights (Single Version)
TTITLE5=Ashford and Simpson - Solid
TTITLE6=Joyce Sims - Come Into My Life
TTITLE7=Charles and Eddie - Would I Lie To You? (Original Version Edit)
TTITLE8=Cherrelle - I Didn't Mean To Turn You On
TTITLE9=D'Angelo - Brown Sugar (Radio Edit)
TTITLE10=Dayton - Krackity-Krack (2004 Remaster)
TTITLE11=KC and The Sunshine Band - Sound Your Funky Horn
TTITLE12=Mystic Merlin - Just Can't Give You Up (Single Version)
TTITLE13=Maze Feat. Franky Beverly - Back In Stride (Single Edit)
TTITLE14=High Fashion - Make Up Your Mind
TTITLE15=Ike and Tina Turner - I Want To Take You Higher (2002 Remaster)
TTITLE16=Brass Construction - Music Makes You Feel Like Dancing (7" Single Vers
TTITLE16=ion)
TTITLE17=Bobby Womack - Lookin' For A Love
TTITLE18=Minnie Riperton - Inside My Love (2001 Remaster)
TTITLE19=Al Green - Take Me To The River
EXTD=
EXTT0=
EXTT1=
EXTT2=
EXTT3=
EXTT4=
EXTT5=
EXTT6=
EXTT7=
EXTT8=
EXTT9=
EXTT10=
EXTT11=
EXTT12=
EXTT13=
EXTT14=
EXTT15=
EXTT16=
EXTT17=
EXTT18=
EXTT19=
PLAYORDER=
